<?xml version="1.0" encoding="UTF-8" standalone="no"?>
<svg width="853px" height="363px" viewBox="0 0 853 363" version="1.1" xmlns="http://www.w3.org/2000/svg" xmlns:xlink="http://www.w3.org/1999/xlink" xmlns:sketch="http://www.bohemiancoding.com/sketch/ns">
    <!-- Generator: Sketch 3.3.2 (12043) - http://www.bohemiancoding.com/sketch -->
    <title>hot_air_mark</title>
    <desc>Created with Sketch.</desc>
    <defs></defs>
    <g id="Page-1" stroke="none" stroke-width="1" fill="none" fill-rule="evenodd" sketch:type="MSPage">
        <g id="hot_air_mark" sketch:type="MSLayerGroup">
            <g id="Group" sketch:type="MSShapeGroup">
                <g>
                    <path d="M89.9756509,171.123556 L89.9756509,128.451911 L143.763472,99.7315556 C143.763472,99.7315556 150.108811,94.6613333 171.530481,126.513778" id="Shape" fill="#213943"></path>
                    <path d="M109.765896,196.744533 L45.7878208,191.167289 C45.7878208,191.167289 38.5816792,189.588978 0.189915094,206.328889 L29.5801509,220.64 C29.5883491,220.64 40.1885094,219.102578 109.765896,196.744533 L109.765896,196.744533 Z" id="Shape" fill="#213943"></path>
                    <path d="M104.158387,278.424178 L84.1713868,276.510578 C84.1713868,276.510578 71.365934,325.495467 84.1713868,327.8752 L130.753066,334.262044 C130.753066,334.262044 139.082349,341.115022 164.775236,293.487644" id="Shape" fill="#203943"></path>
                    <g id="XMLID_2_" transform="translate(28.792453, 0.000000)">
                        <g id="XMLID_3_">
                            <g id="Group">
                                <path d="M823.976642,103.558756 C824.206189,109.005156 826.673821,250.439822 476.065113,304.429511 C476.065113,304.429511 248.624858,344.467911 36.6708396,270.156444 C692.741245,288.229333 823.976642,103.558756 823.976642,103.558756 L823.976642,103.558756 Z" id="Shape" fill="#325665"></path>
                                <path d="M823.976642,103.3952 L823.976642,103.558756 C823.976642,103.558756 823.968443,103.509689 823.943849,103.419733 C823.968443,103.411556 823.976642,103.3952 823.976642,103.3952 L823.976642,103.3952 Z" id="Shape" fill="#AFAFAF"></path>
                                <path d="M823.943849,103.419733 C823.968443,103.501511 823.976642,103.558756 823.976642,103.558756 C823.976642,103.558756 692.741245,288.229333 36.6708396,270.148267 C28.7514623,267.376 20.8648774,264.448356 13.0110849,261.348978 C584.337594,251.854578 820.287491,105.701333 823.943849,103.419733 L823.943849,103.419733 Z" id="Shape" fill="#407083"></path>
                                <path d="M821.861528,98.0224 C821.9845,98.3086222 822.091075,98.5866667 822.189453,98.8483556 C803.530547,95.8144 528.852764,55.6042667 1.03364151,220.582756 C2.26335849,213.533511 12.6257736,203.572978 27.0462547,192.868267 C553.996377,-39.168 796.562151,83.5395556 821.754953,97.7770667 C821.795943,97.8670222 821.828736,97.9406222 821.861528,98.0224 L821.861528,98.0224 Z" id="Shape" fill="#4C8399"></path>
                                <path d="M36.1461604,270.131911 C28.3989434,267.416889 20.7009151,264.521956 13.0110849,261.528889 C13.0110849,261.528889 -3.78684906,254.324267 0.992650943,220.844444 C1.00084906,220.754489 1.01724528,220.672711 1.04183962,220.574578 C528.852764,55.6042667 803.530547,95.8062222 822.197651,98.8401778 C822.099274,98.5784889 821.992698,98.3004444 821.869726,98.0142222 C823.148632,100.974578 823.788085,102.904533 823.952047,103.411556 C820.295689,105.693156 584.337594,251.8464 13.019283,261.3408 C20.8730755,264.440178 28.7596604,267.367822 36.6790377,270.140089 C36.5150755,270.140089 36.3429151,270.123733 36.1871509,270.123733 L36.1461604,270.123733 L36.1461604,270.131911 Z" id="Shape" fill="#23404B"></path>
                                <path d="M27.0544528,192.868267 C12.6339717,203.572978 2.2715566,213.525333 1.04183962,220.582756 C0.968056604,220.607289 0.877877358,220.631822 0.812292453,220.656356 C0.836886792,220.149333 0.910669811,219.585067 0.992650943,219.086222 C4.74738679,192.876444 137.761774,125.753244 137.761774,125.753244 C706.97317,-121.730844 809.302019,67.2903111 821.763151,97.7852444 C796.570349,83.5395556 554.004575,-39.1598222 27.0544528,192.868267 L27.0544528,192.868267 Z" id="Shape" fill="#6ABADB"></path>
                            </g>
                        </g>
                    </g>
                    <path d="M412.153302,310.047644 C412.153302,310.047644 456.078792,279.217422 504.849368,300.749511 C504.849368,300.749511 505.660981,351.010133 491.256896,354.207644 C476.869208,357.405156 464.875368,362.180978 428.090434,362.180978 C428.082236,362.180978 412.473028,365.501156 412.153302,310.047644 L412.153302,310.047644 Z" id="Shape" fill="#325665"></path>
                </g>
            </g>
        </g>
    </g>
</svg>